<?xml version="1.0" encoding="UTF-8"?>
<svg version="1.1" xmlns="http://www.w3.org/2000/svg" width="256" height="256">
<path d="M0 0 C2.52096309 2.2275585 4.98034211 4.50638231 7.42578125 6.81640625 C8.17601562 7.5021875 8.92625 8.18796875 9.69921875 8.89453125 C25.98970564 24.32762409 36.54719771 45.38249626 42.42578125 66.81640625 C42.93431641 68.57791016 42.93431641 68.57791016 43.453125 70.375 C51.37949267 103.7241875 43.69917207 138.85763396 26.42578125 167.81640625 C21.49702501 175.46447627 15.66316104 182.21338695 9.42578125 188.81640625 C8.74 189.56664062 8.05421875 190.316875 7.34765625 191.08984375 C-8.08543659 207.38033064 -29.14030876 217.93782271 -50.57421875 223.81640625 C-51.74855469 224.15542969 -52.92289063 224.49445313 -54.1328125 224.84375 C-87.482 232.77011767 -122.61544646 225.08979707 -151.57421875 207.81640625 C-159.22228877 202.88765001 -165.97119945 197.05378604 -172.57421875 190.81640625 C-173.32445312 190.130625 -174.0746875 189.44484375 -174.84765625 188.73828125 C-191.13814314 173.30518841 -201.69563521 152.25031624 -207.57421875 130.81640625 C-207.91324219 129.64207031 -208.25226563 128.46773437 -208.6015625 127.2578125 C-216.52793017 93.908625 -208.84760957 58.77517854 -191.57421875 29.81640625 C-186.64546251 22.16833623 -180.81159854 15.41942555 -174.57421875 8.81640625 C-173.8884375 8.06617188 -173.20265625 7.3159375 -172.49609375 6.54296875 C-157.06300091 -9.74751814 -136.00812874 -20.30501021 -114.57421875 -26.18359375 C-113.39988281 -26.52261719 -112.22554688 -26.86164062 -111.015625 -27.2109375 C-72.53579317 -36.35674638 -29.92130312 -25.38089294 0 0 Z " fill="#FCFDF8" transform="translate(210.57421875,29.18359375)"/>
<path d="M0 0 C1.36277573 -0.01268921 1.36277573 -0.01268921 2.75308228 -0.02563477 C3.74746307 -0.01956207 4.74184387 -0.01348938 5.76635742 -0.00723267 C6.81536224 -0.01248962 7.86436707 -0.01774658 8.94515991 -0.02316284 C12.42086574 -0.0363922 15.89611549 -0.02761412 19.37182617 -0.01748657 C21.78173918 -0.01950646 24.19165159 -0.02241718 26.6015625 -0.02618408 C31.6555767 -0.03061143 36.70943198 -0.02416303 41.76342773 -0.01016235 C48.25041858 0.00692956 54.7370371 -0.0029094 61.22401428 -0.02087975 C66.20132262 -0.03170639 71.1785423 -0.02827635 76.15585327 -0.02049637 C78.54812667 -0.01849127 80.94040804 -0.02096444 83.33267212 -0.02793503 C86.67276415 -0.03553092 90.01224831 -0.0239709 93.35229492 -0.00723267 C94.84386612 -0.01634171 94.84386612 -0.01634171 96.36557007 -0.02563477 C97.27408722 -0.01717529 98.18260437 -0.00871582 99.11865234 0 C100.3033033 0.00169662 100.3033033 0.00169662 101.5118866 0.00342751 C104.083934 0.47768235 104.97228657 1.33972673 106.55932617 3.38095093 C106.94750977 5.4180603 106.94750977 5.4180603 106.95776367 7.72470093 C106.96163086 8.55872437 106.96549805 9.3927478 106.96948242 10.25204468 C106.95788086 11.11958374 106.9462793 11.9871228 106.93432617 12.88095093 C106.94592773 13.74848999 106.9575293 14.61602905 106.96948242 15.50985718 C106.96561523 16.34388062 106.96174805 17.17790405 106.95776367 18.03720093 C106.95437988 18.79839233 106.95099609 19.55958374 106.94750977 20.34384155 C106.4242316 23.08990006 105.85725026 23.75598171 103.55932617 25.38095093 C100.8073071 25.68543498 98.27760717 25.80816317 95.52368164 25.79745483 C94.70554993 25.80604019 93.88741821 25.81462555 93.04449463 25.82347107 C90.33841402 25.84857988 87.63270021 25.85291376 84.92651367 25.85751343 C83.04988477 25.8718173 81.17326642 25.8875732 79.29666138 25.90472412 C74.35526624 25.9466237 69.4139365 25.9715918 64.47241211 25.99221802 C56.55505704 26.02800645 48.63786312 26.08886081 40.72067642 26.15070724 C37.9480519 26.16986461 35.17547049 26.18154633 32.40280151 26.19213867 C30.71392725 26.20234536 29.0250539 26.21270282 27.33618164 26.22323608 C26.55902802 26.22427841 25.78187439 26.22532074 24.98117065 26.22639465 C21.47753789 25.93362108 21.47753789 25.93362108 18.55932617 27.38095093 C18.45497999 29.24185669 18.4207798 31.10673369 18.4140625 32.97055054 C18.40768265 34.16526474 18.4013028 35.35997894 18.39472961 36.59089661 C18.39361679 37.89188797 18.39250397 39.19287933 18.39135742 40.53329468 C18.38814642 41.87228939 18.38478247 43.21128375 18.38127136 44.55027771 C18.37527409 47.36062432 18.37343207 50.17094016 18.37402344 52.98129272 C18.37412508 56.58741452 18.36047372 60.19333951 18.34325123 63.79941463 C18.33214758 66.56602388 18.33010372 69.3325853 18.33063316 72.09921455 C18.32887428 74.07684407 18.31802265 76.05445867 18.30708313 78.03205872 C18.31015976 79.22992508 18.31323639 80.42779144 18.31640625 81.66195679 C18.31498123 82.72039291 18.31355621 83.77882904 18.31208801 84.86933899 C18.30808014 87.55266099 18.30808014 87.55266099 20.55932617 89.38095093 C23.09355295 89.68784878 23.09355295 89.68784878 26.07885742 89.63973999 C27.23345459 89.64604431 28.38805176 89.65234863 29.57763672 89.65884399 C31.4557605 89.6527713 31.4557605 89.6527713 33.37182617 89.64657593 C35.29152222 89.64944611 35.29152222 89.64944611 37.25 89.65237427 C39.9602541 89.65532474 42.67037644 89.65103048 45.38061523 89.64169312 C48.85781848 89.63029845 52.334713 89.63685836 55.81190491 89.64883804 C59.12357022 89.65779518 62.43515208 89.65152728 65.74682617 89.64657593 C66.99890869 89.65062439 68.25099121 89.65467285 69.54101562 89.65884399 C71.27291138 89.64938751 71.27291138 89.64938751 73.03979492 89.63973999 C74.05968506 89.6381488 75.0795752 89.63655762 76.13037109 89.63491821 C78.74035925 89.61974451 78.74035925 89.61974451 80.55932617 87.38095093 C80.73096348 84.81802776 80.79197175 82.37749236 80.74682617 79.81845093 C80.74618164 79.12042358 80.74553711 78.42239624 80.74487305 77.70321655 C81.01413997 74.2524505 81.01413997 74.2524505 79.55932617 71.38095093 C76.85728055 71.25787086 74.1768262 71.19484955 71.47338867 71.17001343 C69.80410804 71.14194421 68.13483734 71.11327974 66.46557617 71.08407593 C63.82332643 71.04279078 61.1812618 71.00592039 58.53881836 70.97958374 C55.99578158 70.95201437 53.45359815 70.90614148 50.91088867 70.85751343 C50.12017975 70.85426056 49.32947083 70.85100769 48.51480103 70.84765625 C43.11509858 70.72633202 43.11509858 70.72633202 40.56005859 69.13851929 C39.27839034 66.88754838 39.18651685 65.37055241 39.19604492 62.78329468 C39.19668945 61.89964233 39.19733398 61.01598999 39.19799805 60.1055603 C39.21411133 59.18581421 39.23022461 58.26606812 39.24682617 57.31845093 C39.24360352 56.39483765 39.24038086 55.47122437 39.23706055 54.5196228 C39.29227444 47.64800266 39.29227444 47.64800266 41.55932617 45.38095093 C44.17810059 45.12698364 44.17810059 45.12698364 47.5378418 45.12216187 C48.79254272 45.11585754 50.04724365 45.10955322 51.33996582 45.10305786 C52.71517069 45.10663754 54.09037429 45.11073948 55.46557617 45.11532593 C56.8704027 45.1139792 58.27522878 45.1120386 59.68005371 45.10952759 C62.62569614 45.10657667 65.57121735 45.11087284 68.5168457 45.12020874 C72.2967112 45.13160338 76.07629269 45.12504372 79.85614777 45.11306381 C82.7574478 45.10584428 85.65868026 45.10813354 88.5599823 45.1133194 C89.95387302 45.11465564 91.34776983 45.11300905 92.74165344 45.10836029 C94.68803799 45.10329382 96.63444398 45.11238223 98.58081055 45.12216187 C99.68952515 45.12375305 100.79823975 45.12534424 101.94055176 45.12698364 C104.55932617 45.38095093 104.55932617 45.38095093 106.55932617 47.38095093 C106.76312448 50.10550232 106.84250894 52.72883058 106.83398438 55.45492554 C106.83909531 56.28920578 106.84420624 57.12348602 106.84947205 57.98304749 C106.86340933 60.74986886 106.86240817 63.5164423 106.86010742 66.28329468 C106.86399214 68.20139153 106.86832634 70.11948753 106.87309265 72.0375824 C106.88056381 76.06181626 106.88025716 80.08596241 106.875 84.11019897 C106.86920479 89.27332474 106.88613328 94.43609184 106.90934467 99.59915829 C106.92405973 103.56164152 106.92495675 107.52403794 106.92183495 111.48654366 C106.9223493 113.39038364 106.92760836 115.29422833 106.93764687 117.19804192 C106.94995065 119.85812717 106.94325625 122.51750824 106.93164062 125.17758179 C106.93928436 125.96781738 106.9469281 126.75805298 106.95480347 127.57223511 C106.90349712 132.87417339 106.90349712 132.87417339 105.1869812 135.40167236 C103.55932617 136.38095093 103.55932617 136.38095093 101.14453125 136.2527771 C98.37215257 135.31782911 96.52618855 134.19207043 94.19604492 132.43173218 C92.98851562 131.52971069 92.98851562 131.52971069 91.7565918 130.60946655 C90.92836914 129.9771814 90.10014648 129.34489624 89.24682617 128.69345093 C88.02189453 127.7740271 88.02189453 127.7740271 86.7722168 126.83602905 C85.22265966 125.67170046 83.67567954 124.50392726 82.13232422 123.33139038 C81.28323486 122.68774536 80.43414551 122.04410034 79.55932617 121.38095093 C79.07717651 120.87379044 78.59502686 120.36662994 78.0982666 119.84410095 C71.32702258 113.43918318 62.7112709 114.58230672 54.00463867 114.68173218 C52.29449571 114.67809533 50.58435677 114.67138891 48.87423706 114.66175842 C44.39332121 114.64275731 39.91318415 114.65667169 35.43231201 114.68026733 C28.24001343 114.71477273 21.04790037 114.70892653 13.85558701 114.68413353 C11.34365481 114.68175726 8.83242984 114.69958177 6.32058716 114.71940613 C4.78965247 114.71965411 3.25871749 114.71925742 1.7277832 114.71810913 C1.02753525 114.72897049 0.32728729 114.73983185 -0.3941803 114.75102234 C-2.33078003 114.73930359 -2.33078003 114.73930359 -5.44067383 114.38095093 C-7.53528464 111.2390347 -7.69206842 110.51881598 -7.70137024 106.9402771 C-7.70845505 106.03175995 -7.71553986 105.1232428 -7.72283936 104.18719482 C-7.72036194 103.19281403 -7.71788452 102.19843323 -7.71533203 101.17391968 C-7.72044296 100.12491486 -7.72555389 99.07591003 -7.7308197 97.99511719 C-7.74474665 94.51950412 -7.74375674 91.04408862 -7.74145508 87.56845093 C-7.74533996 85.15853806 -7.7496742 82.74862588 -7.75444031 80.3387146 C-7.76190896 75.28473695 -7.7616063 70.23082915 -7.75634766 65.17684937 C-7.75054863 58.68987642 -7.76749161 52.20318859 -7.79069233 45.71626282 C-7.80539941 40.73896606 -7.80630556 35.76173846 -7.8031826 30.78442383 C-7.80369722 28.39214513 -7.80896112 25.9998627 -7.81899452 23.60760498 C-7.83128446 20.26754022 -7.82461208 16.92803745 -7.81298828 13.58798218 C-7.82063202 12.59360138 -7.82827576 11.59922058 -7.83615112 10.57470703 C-7.82913681 9.66618988 -7.8221225 8.75767273 -7.81489563 7.82162476 C-7.81514724 6.6369738 -7.81514724 6.6369738 -7.81540394 5.4283905 C-6.98609976 0.89726224 -4.24568749 0.00608052 0 0 Z " fill="#6346F9" transform="translate(78.440673828125,59.619049072265625)"/>
</svg>
